{
    "asset" : {
        "generator" : "Khronos glTF Blender I/O v1.7.33",
        "version" : "2.0"
    },
    "scene" : 0,
    "scenes" : [
        {
            "name" : "Scene",
            "nodes" : [
                0,
                1,
                2,
                3,
                4,
                5
            ]
        }
    ],
    "nodes" : [
        {
            "mesh" : 0,
            "name" : "human_short_small-base",
            "rotation" : [
                0.7071068286895752,
                0,
                0,
                0.7071067094802856
            ],
            "scale" : [
                0.09999999403953552,
                0.09999999403953552,
                0.09999999403953552
            ]
        },
        {
            "mesh" : 1,
            "name" : "human_short_small-highpolyeyes",
            "rotation" : [
                0.7071068286895752,
                0,
                0,
                0.7071067094802856
            ],
            "scale" : [
                0.09999999403953552,
                0.09999999403953552,
                0.09999999403953552
            ]
        },
        {
            "mesh" : 2,
            "name" : "human_short_regular-base",
            "rotation" : [
                0.7071068286895752,
                0,
                0,
                0.7071067094802856
            ],
            "scale" : [
                0.09999999403953552,
                0.09999999403953552,
                0.09999999403953552
            ],
            "translation" : [
                0.05021834373474121,
                0,
                0
            ]
        },
        {
            "mesh" : 3,
            "name" : "human_short_regular-highpolyeyes",
            "rotation" : [
                0.7071068286895752,
                0,
                0,
                0.7071067094802856
            ],
            "scale" : [
                0.09999999403953552,
                0.09999999403953552,
                0.09999999403953552
            ],
            "translation" : [
                0.05021834373474121,
                0,
                0
            ]
        },
        {
            "mesh" : 4,
            "name" : "human_short_large-base",
            "rotation" : [
                0.7071068286895752,
                0,
                0,
                0.7071067094802856
            ],
            "scale" : [
                0.09999999403953552,
                0.09999999403953552,
                0.09999999403953552
            ],
            "translation" : [
                1.1505457162857056,
                0,
                0
            ]
        },
        {
            "mesh" : 5,
            "name" : "human_short_large-highpolyeyes",
            "rotation" : [
                0.7071068286895752,
                0,
                0,
                0.7071067094802856
            ],
            "scale" : [
                0.09999999403953552,
                0.09999999403953552,
                0.09999999403953552
            ],
            "translation" : [
                1.1505457162857056,
                0,
                0
            ]
        }
    ],
    "materials" : [
        {
            "doubleSided" : true,
            "name" : "DefaultSkin",
            "pbrMetallicRoughness" : {
                "baseColorFactor" : [
                    0.5902999639511108,
                    0.4399999976158142,
                    0.33799999952316284,
                    1
                ],
                "metallicFactor" : 0,
                "roughnessFactor" : 0.5
            }
        },
        {
            "doubleSided" : true,
            "name" : "Eye_brown",
            "pbrMetallicRoughness" : {
                "metallicFactor" : 0,
                "roughnessFactor" : 0.5
            }
        },
        {
            "doubleSided" : true,
            "name" : "DefaultSkin.001",
            "pbrMetallicRoughness" : {
                "baseColorFactor" : [
                    0.5902999639511108,
                    0.4399999976158142,
                    0.33799999952316284,
                    1
                ],
                "metallicFactor" : 0,
                "roughnessFactor" : 0.5
            }
        },
        {
            "doubleSided" : true,
            "name" : "Eye_brown.001",
            "pbrMetallicRoughness" : {
                "metallicFactor" : 0,
                "roughnessFactor" : 0.5
            }
        },
        {
            "doubleSided" : true,
            "name" : "DefaultSkin.002",
            "pbrMetallicRoughness" : {
                "baseColorFactor" : [
                    0.5902999639511108,
                    0.4399999976158142,
                    0.33799999952316284,
                    1
                ],
                "metallicFactor" : 0,
                "roughnessFactor" : 0.5
            }
        },
        {
            "doubleSided" : true,
            "name" : "Eye_brown.002",
            "pbrMetallicRoughness" : {
                "metallicFactor" : 0,
                "roughnessFactor" : 0.5
            }
        }
    ],
    "meshes" : [
        {
            "name" : "human_short_small-base",
            "primitives" : [
                {
                    "attributes" : {
                        "POSITION" : 0,
                        "NORMAL" : 1,
                        "TEXCOORD_0" : 2
                    },
                    "indices" : 3,
                    "material" : 0
                }
            ]
        },
        {
            "name" : "human_short_small-highpolyeyes",
            "primitives" : [
                {
                    "attributes" : {
                        "POSITION" : 4,
                        "NORMAL" : 5,
                        "TEXCOORD_0" : 6
                    },
                    "indices" : 7,
                    "material" : 1
                }
            ]
        },
        {
            "extras" : {
                "targetNames" : [
                    "human_short_small-base",
                    "human_short_large-base"
                ]
            },
            "name" : "human_short_regular-base",
            "primitives" : [
                {
                    "attributes" : {
                        "POSITION" : 8,
                        "NORMAL" : 9,
                        "TEXCOORD_0" : 10
                    },
                    "indices" : 3,
                    "material" : 2,
                    "targets" : [
                        {
                            "POSITION" : 11,
                            "NORMAL" : 12
                        },
                        {
                            "POSITION" : 13,
                            "NORMAL" : 14
                        }
                    ]
                }
            ],
            "weights" : [
                0,
                0
            ]
        },
        {
            "name" : "human_short_regular-highpolyeyes",
            "primitives" : [
                {
                    "attributes" : {
                        "POSITION" : 15,
                        "NORMAL" : 16,
                        "TEXCOORD_0" : 17
                    },
                    "indices" : 7,
                    "material" : 3
                }
            ]
        },
        {
            "name" : "human_short_large-base",
            "primitives" : [
                {
                    "attributes" : {
                        "POSITION" : 18,
                        "NORMAL" : 19,
                        "TEXCOORD_0" : 20
                    },
                    "indices" : 3,
                    "material" : 4
                }
            ]
        },
        {
            "name" : "human_short_large-highpolyeyes",
            "primitives" : [
                {
                    "attributes" : {
                        "POSITION" : 21,
                        "NORMAL" : 22,
                        "TEXCOORD_0" : 23
                    },
                    "indices" : 7,
                    "material" : 5
                }
            ]
        }
    ],
    "accessors" : [
        {
            "bufferView" : 0,
            "componentType" : 5126,
            "count" : 14517,
            "max" : [
                5.129499912261963,
                3.3469998836517334,
                0.006099999882280827
            ],
            "min" : [
                -5.129499912261963,
                -0.8888999819755554,
                -15.025599479675293
            ],
            "type" : "VEC3"
        },
        {
            "bufferView" : 1,
            "componentType" : 5126,
            "count" : 14517,
            "type" : "VEC3"
        },
        {
            "bufferView" : 2,
            "componentType" : 5126,
            "count" : 14517,
            "type" : "VEC2"
        },
        {
            "bufferView" : 3,
            "componentType" : 5123,
            "count" : 80268,
            "type" : "SCALAR"
        },
        {
            "bufferView" : 4,
            "componentType" : 5126,
            "count" : 1076,
            "max" : [
                0.41609999537467957,
                1.3336999416351318,
                -13.887199401855469
            ],
            "min" : [
                -0.41609999537467957,
                1.1032999753952026,
                -14.1628999710083
            ],
            "type" : "VEC3"
        },
        {
            "bufferView" : 5,
            "componentType" : 5126,
            "count" : 1076,
            "type" : "VEC3"
        },
        {
            "bufferView" : 6,
            "componentType" : 5126,
            "count" : 1076,
            "type" : "VEC2"
        },
        {
            "bufferView" : 7,
            "componentType" : 5123,
            "count" : 6120,
            "type" : "SCALAR"
        },
        {
            "bufferView" : 8,
            "componentType" : 5126,
            "count" : 14517,
            "max" : [
                5.129499912261963,
                3.3469998836517334,
                0.006099999882280827
            ],
            "min" : [
                -5.129499912261963,
                -0.9283999800682068,
                -15.025599479675293
            ],
            "type" : "VEC3"
        },
        {
            "bufferView" : 9,
            "componentType" : 5126,
            "count" : 14517,
            "type" : "VEC3"
        },
        {
            "bufferView" : 10,
            "componentType" : 5126,
            "count" : 14517,
            "type" : "VEC2"
        },
        {
            "bufferView" : 11,
            "componentType" : 5126,
            "count" : 14517,
            "max" : [
                0.24199998378753662,
                0.10699999332427979,
                0.07600021362304688
            ],
            "min" : [
                -0.24199998378753662,
                -0.13899999856948853,
                -0.062000274658203125
            ],
            "type" : "VEC3"
        },
        {
            "bufferView" : 12,
            "componentType" : 5126,
            "count" : 14517,
            "type" : "VEC3"
        },
        {
            "bufferView" : 13,
            "componentType" : 5126,
            "count" : 14517,
            "max" : [
                0.22800004482269287,
                0.12700003385543823,
                0.1360006332397461
            ],
            "min" : [
                -0.22800004482269287,
                -0.23500001430511475,
                -0.12799930572509766
            ],
            "type" : "VEC3"
        },
        {
            "bufferView" : 14,
            "componentType" : 5126,
            "count" : 14517,
            "type" : "VEC3"
        },
        {
            "bufferView" : 15,
            "componentType" : 5126,
            "count" : 1076,
            "max" : [
                0.41609999537467957,
                1.3336999416351318,
                -13.887199401855469
            ],
            "min" : [
                -0.41609999537467957,
                1.1032999753952026,
                -14.1628999710083
            ],
            "type" : "VEC3"
        },
        {
            "bufferView" : 16,
            "componentType" : 5126,
            "count" : 1076,
            "type" : "VEC3"
        },
        {
            "bufferView" : 17,
            "componentType" : 5126,
            "count" : 1076,
            "type" : "VEC2"
        },
        {
            "bufferView" : 18,
            "componentType" : 5126,
            "count" : 14517,
            "max" : [
                5.129499912261963,
                3.3469998836517334,
                0.006099999882280827
            ],
            "min" : [
                -5.129499912261963,
                -0.9783999919891357,
                -15.025599479675293
            ],
            "type" : "VEC3"
        },
        {
            "bufferView" : 19,
            "componentType" : 5126,
            "count" : 14517,
            "type" : "VEC3"
        },
        {
            "bufferView" : 20,
            "componentType" : 5126,
            "count" : 14517,
            "type" : "VEC2"
        },
        {
            "bufferView" : 21,
            "componentType" : 5126,
            "count" : 1076,
            "max" : [
                0.41609999537467957,
                1.3336999416351318,
                -13.887199401855469
            ],
            "min" : [
                -0.41609999537467957,
                1.1032999753952026,
                -14.1628999710083
            ],
            "type" : "VEC3"
        },
        {
            "bufferView" : 22,
            "componentType" : 5126,
            "count" : 1076,
            "type" : "VEC3"
        },
        {
            "bufferView" : 23,
            "componentType" : 5126,
            "count" : 1076,
            "type" : "VEC2"
        }
    ],
    "bufferViews" : [
        {
            "buffer" : 0,
            "byteLength" : 174204,
            "byteOffset" : 0
        },
        {
            "buffer" : 0,
            "byteLength" : 174204,
            "byteOffset" : 174204
        },
        {
            "buffer" : 0,
            "byteLength" : 116136,
            "byteOffset" : 348408
        },
        {
            "buffer" : 0,
            "byteLength" : 160536,
            "byteOffset" : 464544
        },
        {
            "buffer" : 0,
            "byteLength" : 12912,
            "byteOffset" : 625080
        },
        {
            "buffer" : 0,
            "byteLength" : 12912,
            "byteOffset" : 637992
        },
        {
            "buffer" : 0,
            "byteLength" : 8608,
            "byteOffset" : 650904
        },
        {
            "buffer" : 0,
            "byteLength" : 12240,
            "byteOffset" : 659512
        },
        {
            "buffer" : 0,
            "byteLength" : 174204,
            "byteOffset" : 671752
        },
        {
            "buffer" : 0,
            "byteLength" : 174204,
            "byteOffset" : 845956
        },
        {
            "buffer" : 0,
            "byteLength" : 116136,
            "byteOffset" : 1020160
        },
        {
            "buffer" : 0,
            "byteLength" : 174204,
            "byteOffset" : 1136296
        },
        {
            "buffer" : 0,
            "byteLength" : 174204,
            "byteOffset" : 1310500
        },
        {
            "buffer" : 0,
            "byteLength" : 174204,
            "byteOffset" : 1484704
        },
        {
            "buffer" : 0,
            "byteLength" : 174204,
            "byteOffset" : 1658908
        },
        {
            "buffer" : 0,
            "byteLength" : 12912,
            "byteOffset" : 1833112
        },
        {
            "buffer" : 0,
            "byteLength" : 12912,
            "byteOffset" : 1846024
        },
        {
            "buffer" : 0,
            "byteLength" : 8608,
            "byteOffset" : 1858936
        },
        {
            "buffer" : 0,
            "byteLength" : 174204,
            "byteOffset" : 1867544
        },
        {
            "buffer" : 0,
            "byteLength" : 174204,
            "byteOffset" : 2041748
        },
        {
            "buffer" : 0,
            "byteLength" : 116136,
            "byteOffset" : 2215952
        },
        {
            "buffer" : 0,
            "byteLength" : 12912,
            "byteOffset" : 2332088
        },
        {
            "buffer" : 0,
            "byteLength" : 12912,
            "byteOffset" : 2345000
        },
        {
            "buffer" : 0,
            "byteLength" : 8608,
            "byteOffset" : 2357912
        }
    ],
    "buffers" : [
        {
            "byteLength" : 2366520,
            "uri" : "data:application/octet-stream;base64,"
        }
    ]
}
